<svg xmlns="http://www.w3.org/2000/svg" width="512" height="512" viewBox="0 0 512 512">
  <defs>
    <linearGradient id="gradient1" x1="0%" y1="0%" x2="100%" y2="100%">
      <stop offset="0%" stop-color="#e9f2ff" />
      <stop offset="100%" stop-color="#c5d8ff" />
    </linearGradient>
    <linearGradient id="gradient2" x1="0%" y1="0%" x2="100%" y2="100%">
      <stop offset="0%" stop-color="#0d6efd" />
      <stop offset="100%" stop-color="#0a58ca" />
    </linearGradient>
  </defs>
  
  <!-- Hình nền -->
  <circle cx="256" cy="256" r="200" fill="url(#gradient1)" opacity="0.7" />
  
  <!-- Hộp thoại trò chuyện bên trái -->
  <g transform="translate(80, 150)">
    <rect x="0" y="0" width="120" height="200" rx="15" ry="15" fill="white" stroke="#ddd" stroke-width="2" />
    
    <!-- Danh sách cuộc trò chuyện -->
    <rect x="10" y="20" width="100" height="30" rx="5" ry="5" fill="#f8f9fa" />
    <circle cx="25" cy="35" r="8" fill="#adb5bd" />
    <rect x="40" y="30" width="60" height="10" rx="5" ry="5" fill="#adb5bd" />
    
    <rect x="10" y="60" width="100" height="30" rx="5" ry="5" fill="#f8f9fa" />
    <circle cx="25" cy="75" r="8" fill="#adb5bd" />
    <rect x="40" y="70" width="60" height="10" rx="5" ry="5" fill="#adb5bd" />
    
    <rect x="10" y="100" width="100" height="30" rx="5" ry="5" fill="#e9f2ff" stroke="#0d6efd" stroke-width="2" />
    <circle cx="25" cy="115" r="8" fill="#0d6efd" />
    <rect x="40" y="110" width="60" height="10" rx="5" ry="5" fill="#adb5bd" />
    
    <rect x="10" y="140" width="100" height="30" rx="5" ry="5" fill="#f8f9fa" />
    <circle cx="25" cy="155" r="8" fill="#adb5bd" />
    <rect x="40" y="150" width="60" height="10" rx="5" ry="5" fill="#adb5bd" />
  </g>
  
  <!-- Mũi tên chỉ từ danh sách sang hộp thoại -->
  <path d="M220 265 L260 265" stroke="#0d6efd" stroke-width="3" stroke-dasharray="5,5" />
  <path d="M260 265 L250 255 M260 265 L250 275" stroke="#0d6efd" stroke-width="3" />
  
  <!-- Hộp thoại trò chuyện chính -->
  <g transform="translate(280, 150)">
    <rect x="0" y="0" width="160" height="200" rx="15" ry="15" fill="white" stroke="#ddd" stroke-width="2" />
    
    <!-- Tiêu đề -->
    <rect x="0" y="0" width="160" height="40" rx="15" ry="15" fill="#f8f9fa" stroke="#ddd" stroke-width="2" />
    <circle cx="25" cy="20" r="10" fill="#0d6efd" />
    <rect x="45" y="15" width="80" height="10" rx="5" ry="5" fill="#adb5bd" />
    
    <!-- Biểu tượng chọn cuộc trò chuyện -->
    <circle cx="80" cy="100" r="30" fill="url(#gradient2)" opacity="0.2" />
    <path d="M65 100 L75 110 L95 90" stroke="#0d6efd" stroke-width="4" stroke-linecap="round" stroke-linejoin="round" fill="none" />
    
    <!-- Văn bản -->
    <rect x="30" y="140" width="100" height="10" rx="5" ry="5" fill="#e9ecef" />
    <rect x="50" y="160" width="60" height="10" rx="5" ry="5" fill="#e9ecef" />
  </g>
  
  <!-- Đường tròn trang trí -->
  <circle cx="150" cy="150" r="10" fill="#0d6efd" opacity="0.3" />
  <circle cx="380" cy="400" r="15" fill="#0d6efd" opacity="0.3" />
  <circle cx="120" cy="380" r="12" fill="#0d6efd" opacity="0.3" />
  <circle cx="420" cy="180" r="8" fill="#0d6efd" opacity="0.3" />
</svg> 