<svg width="300" height="300" xmlns="http://www.w3.org/2000/svg">
  <defs>
    <pattern id="smallGrid" width="10" height="10" patternUnits="userSpaceOnUse">
      <path d="M 10 0 L 0 0 0 10" fill="none" stroke="#e9f2ff" stroke-width="0.5"/>
    </pattern>
    <pattern id="grid" width="100" height="100" patternUnits="userSpaceOnUse">
      <rect width="100" height="100" fill="url(#smallGrid)"/>
      <path d="M 100 0 L 0 0 0 100" fill="none" stroke="#e9f2ff" stroke-width="1"/>
    </pattern>
  </defs>
  
  <rect width="100%" height="100%" fill="url(#grid)" opacity="0.3"/>
  
  <!-- Hình trang trí -->
  <circle cx="50" cy="50" r="15" fill="#e9f2ff" opacity="0.5"/>
  <circle cx="250" cy="150" r="20" fill="#e9f2ff" opacity="0.5"/>
  <circle cx="150" cy="250" r="10" fill="#e9f2ff" opacity="0.5"/>
  
  <!-- Biểu tượng tin nhắn -->
  <g transform="translate(200, 50) scale(0.5)" opacity="0.2">
    <rect x="0" y="0" width="40" height="30" rx="5" ry="5" fill="#0d6efd"/>
    <path d="M 20 30 L 15 40 L 25 40 Z" fill="#0d6efd"/>
  </g>
  
  <g transform="translate(70, 200) scale(0.5)" opacity="0.2">
    <rect x="0" y="0" width="40" height="30" rx="5" ry="5" fill="#0d6efd"/>
    <path d="M 20 30 L 15 40 L 25 40 Z" fill="#0d6efd"/>
  </g>
  
  <!-- Đường trang trí -->
  <path d="M 0 100 Q 50 80, 100 100 T 200 100 T 300 100" stroke="#e9f2ff" stroke-width="1" fill="none" opacity="0.5"/>
  <path d="M 0 200 Q 50 180, 100 200 T 200 200 T 300 200" stroke="#e9f2ff" stroke-width="1" fill="none" opacity="0.5"/>
</svg> 